<?xml version="1.0" standalone="no"?>
<!DOCTYPE svg PUBLIC "-//W3C//DTD SVG 20010904//EN"
 "http://www.w3.org/TR/2001/REC-SVG-20010904/DTD/svg10.dtd">
<svg version="1.0" xmlns="http://www.w3.org/2000/svg"
 width="151.000000pt" height="151.000000pt" viewBox="0 0 151.000000 151.000000"
 preserveAspectRatio="xMidYMid meet">
<metadata>
Created by potrace 1.14, written by Peter Selinger 2001-2017
</metadata>
<g transform="translate(0.000000,151.000000) scale(0.100000,-0.100000)"
fill="#000000" stroke="none">
<path d="M1307 1327 c-14 -12 -31 -35 -37 -50 -9 -24 -6 -32 16 -54 l27 -27
27 34 c42 52 82 26 44 -29 -16 -22 -22 -23 -78 -17 -34 3 -72 8 -86 11 -14 2
-45 7 -70 10 -24 4 -47 8 -51 10 -3 3 -14 -4 -24 -15 -17 -19 -16 -21 18 -55
19 -19 44 -35 55 -35 14 0 20 -5 18 -17 -2 -10 -7 -45 -10 -78 -4 -33 -9 -78
-11 -100 -13 -106 -26 -225 -29 -272 -4 -58 22 -112 74 -153 36 -28 52 -34 90
-34 63 1 106 28 126 81 20 52 13 85 -28 129 -46 49 -118 52 -118 5 0 -21 35
-55 48 -47 20 12 20 -24 1 -48 -23 -29 -69 -35 -89 -11 -11 13 -9 100 4 185 2
14 7 50 10 80 9 77 19 161 22 185 1 11 3 31 3 45 1 25 2 26 79 25 87 0 118 15
146 72 20 41 8 122 -15 107 -8 -4 -9 -3 -5 5 10 15 -46 71 -71 72 -10 0 -27 2
-38 4 -12 2 -33 -6 -48 -18z"/>
<path d="M182 1194 c-38 -15 -66 -67 -64 -117 1 -21 22 -87 47 -147 56 -137
65 -201 30 -236 -29 -29 -69 -27 -73 4 -2 14 7 28 27 43 37 27 38 39 8 66 -52
48 -140 -14 -139 -99 1 -71 68 -140 145 -151 45 -6 111 25 141 66 24 33 34
142 17 187 -6 17 -16 43 -22 60 -6 16 -16 27 -22 23 -5 -3 -7 -1 -4 4 4 6 -4
35 -17 64 -34 80 -39 113 -17 138 21 25 31 18 31 -21 0 -17 4 -27 10 -23 5 3
7 0 4 -8 -7 -18 15 -27 42 -16 18 6 24 22 35 79 9 52 9 74 1 82 -16 16 -144
18 -180 2z"/>
<path d="M442 1191 c-5 -3 -12 -31 -15 -61 -18 -161 -18 -162 -44 -184 -20
-17 -23 -27 -18 -49 5 -17 13 -26 20 -23 9 3 11 -10 7 -57 -11 -121 -9 -130
18 -137 41 -11 62 2 66 41 15 142 9 130 69 147 113 34 168 169 103 254 -15 20
-43 43 -62 52 -37 17 -127 28 -144 17z m129 -108 c22 -22 -19 -113 -52 -113
-10 0 -4 104 7 121 6 10 32 5 45 -8z"/>
<path d="M815 1171 c-106 -49 -159 -190 -110 -294 21 -45 99 -112 116 -101 7
4 9 3 6 -3 -4 -6 3 -13 16 -17 120 -32 247 63 264 199 8 69 -15 121 -82 188
-49 48 -140 61 -210 28z m172 -108 c58 -88 -38 -228 -143 -209 -44 9 -57 28
-57 85 -1 88 57 150 140 151 35 0 46 -5 60 -27z"/>
<path d="M749 638 c0 -24 -2 -51 -4 -61 -2 -9 -6 -50 -10 -90 -3 -39 -8 -79
-10 -87 -4 -16 -17 -140 -19 -180 -1 -23 3 -25 50 -28 36 -2 51 1 51 10 1 19
15 151 18 168 2 8 4 28 4 45 1 40 11 25 56 -85 21 -52 45 -105 52 -116 13 -20
70 -38 77 -25 2 3 7 40 10 81 4 41 9 89 11 105 2 17 7 59 10 95 9 98 17 165
21 169 2 2 -1 12 -7 22 -7 15 -21 19 -57 19 l-47 0 0 -43 c-1 -73 -16 -172
-27 -182 -7 -7 -9 -6 -4 2 3 6 -9 46 -29 88 -19 42 -35 80 -35 83 -1 24 -41
52 -74 52 -36 0 -36 -1 -37 -42z"/>
<path d="M369 617 c-142 -75 -171 -278 -54 -379 70 -62 128 -76 210 -53 55 15
110 65 140 125 30 59 24 213 -8 193 -5 -3 -7 -1 -4 4 7 11 -22 54 -58 87 -55
51 -154 61 -226 23z m188 -105 c32 -43 24 -136 -15 -183 -26 -31 -67 -49 -109
-49 -74 1 -100 51 -78 147 7 32 55 84 90 99 36 15 95 8 112 -14z"/>
</g>
</svg>
